<?xml version="1.0" encoding="UTF-8" standalone="no"?><!DOCTYPE svg PUBLIC "-//W3C//DTD SVG 1.1//EN"
        "http://www.w3.org/Graphics/SVG/1.1/DTD/svg11.dtd">
<svg width="100%" height="100%" viewBox="0 0 755 1192" version="1.1" xmlns="http://www.w3.org/2000/svg"
     xml:space="preserve"
     style="fill-rule:evenodd;clip-rule:evenodd;stroke-linejoin:round;stroke-miterlimit:2;"><rect id="Artboard3" x="0" y="0" width="754.865" height="1191.1" style="fill:none;"/>
    <g id="Illustration"><g id="raket"><path d="M274.719,927.839c46.456,16.581 188.304,16.674 235.836,0.281l-12.006,44.96l-213.481,-0l-10.349,-45.241Z" style="fill:#b4cdd9;"/><path
            d="M488.916,973.08c2.633,13.539 12.004,61.772 11.89,61.886c-25.217,25.217 -190.6,25.784 -216.28,0.104c-0.769,-0.769 6.188,-51.248 7.679,-61.99l196.711,-0Z"
            style="fill:#a04a01;"/><path
            d="M260.031,917.359c-171.835,-617.257 90.255,-916.906 133.457,-916.906c43.203,-0 304.389,299.649 132.554,916.906c-8.532,30.648 -257.479,30.648 -266.011,-0Z"
            style="fill:#eee;"/><path
            d="M270.195,163.546c47.28,-109.198 104.971,-163.093 123.293,-163.093c18.318,-0 75.825,53.869 122.878,162.94c-33.966,23.1 -76.742,36.875 -123.198,36.875c-46.357,-0 -89.05,-13.716 -122.973,-36.722Z"
            style="fill:#a04a01;"/></g>
        <g id="lines"><path d="M567.06,723.506c-56.597,9.157 -116.215,14.049 -177.788,14.049c-58.802,0 -115.82,-4.461 -170.064,-12.829c-1.906,-0.294 -3.693,1.015 -3.987,2.922c-0.294,1.907 1.015,3.693 2.922,3.987c54.583,8.42 111.959,12.911 171.129,12.911c61.96,0 121.952,-4.924 178.904,-14.139c1.905,-0.308 3.201,-2.104 2.893,-4.009c-0.309,-1.904 -2.105,-3.2 -4.009,-2.892Z" style="fill:#245670;"/>
            <path d="M583.374,516.76c-59.245,9.659 -121.94,14.84 -186.804,14.84c-67.381,0 -132.421,-5.591 -193.708,-15.988c-1.902,-0.322 -3.708,0.96 -4.031,2.862c-0.323,1.902 0.96,3.708 2.862,4.031c61.656,10.459 127.089,16.086 194.877,16.086c65.255,0 128.327,-5.214 187.929,-14.931c1.904,-0.31 3.198,-2.108 2.887,-4.012c-0.31,-1.905 -2.108,-3.198 -4.012,-2.888Z"
                  style="fill:#245670;"/>
            <path d="M563.551,497.067c-0.343,0.06 -0.685,0.119 -1.028,0.179c-2.851,0.496 -4.763,3.213 -4.267,6.064c0.496,2.851 3.214,4.763 6.065,4.267c0.346,-0.06 0.692,-0.12 1.039,-0.181c2.85,-0.499 4.759,-3.219 4.26,-6.069c-0.499,-2.851 -3.219,-4.76 -6.069,-4.26Zm-83.753,10.926c-0.346,0.031 -0.692,0.061 -1.039,0.09c-2.883,0.249 -5.022,2.792 -4.773,5.675c0.248,2.883 2.791,5.022 5.674,4.773c0.35,-0.03 0.7,-0.06 1.05,-0.091c2.883,-0.251 5.019,-2.796 4.768,-5.679c-0.252,-2.883 -2.797,-5.019 -5.68,-4.768Zm-84.399,3.867c-0.347,0.002 -0.695,0.004 -1.043,0.005c-2.894,0.012 -5.234,2.371 -5.222,5.265c0.012,2.894 2.371,5.233 5.265,5.221c0.351,-0.001 0.703,-0.003 1.054,-0.004c2.894,-0.015 5.231,-2.377 5.216,-5.27c-0.014,-2.894 -2.376,-5.232 -5.27,-5.217Zm-84.437,-2.991c-0.346,-0.027 -0.693,-0.053 -1.04,-0.08c-2.885,-0.224 -5.409,1.936 -5.633,4.822c-0.224,2.885 1.937,5.409 4.822,5.633c0.35,0.027 0.7,0.054 1.051,0.081c2.885,0.221 5.407,-1.942 5.628,-4.828c0.221,-2.885 -1.942,-5.407 -4.828,-5.628Zm-83.87,-10.012c-0.343,-0.056 -0.686,-0.112 -1.029,-0.169c-2.856,-0.47 -5.556,1.467 -6.026,4.322c-0.47,2.856 1.467,5.555 4.322,6.025c0.347,0.058 0.694,0.114 1.041,0.171c2.856,0.467 5.553,-1.472 6.02,-4.328c0.467,-2.856 -1.472,-5.554 -4.328,-6.021Z"
                  style="fill:#a04a01;"/>
            <path d="M558.873,705.452c-0.339,0.063 -0.678,0.125 -1.017,0.187c-2.847,0.521 -4.735,3.255 -4.215,6.102c0.521,2.846 3.255,4.734 6.102,4.214c0.348,-0.064 0.696,-0.128 1.045,-0.193c2.845,-0.528 4.726,-3.267 4.197,-6.112c-0.528,-2.846 -3.267,-4.727 -6.112,-4.198Zm-83.416,6.359c-0.345,-0.01 -0.689,-0.021 -1.034,-0.033c-2.893,-0.095 -5.318,2.175 -5.414,5.067c-0.096,2.892 2.174,5.318 5.066,5.414c0.354,0.012 0.708,0.023 1.062,0.034c2.893,0.088 5.313,-2.188 5.401,-5.081c0.088,-2.892 -2.188,-5.312 -5.081,-5.401Z"
                  style="fill:#a04a01;"/>
            <path d="M316.962,716.938c-0.345,-0.01 -0.69,-0.021 -1.035,-0.032c-2.892,-0.096 -5.318,2.174 -5.414,5.066c-0.096,2.893 2.175,5.318 5.067,5.414c0.354,0.012 0.708,0.023 1.062,0.034c2.892,0.088 5.312,-2.188 5.401,-5.081c0.088,-2.892 -2.189,-5.312 -5.081,-5.401Zm-82.913,-11.31c-0.335,-0.083 -0.669,-0.166 -1.004,-0.249c-2.808,-0.699 -5.656,1.013 -6.355,3.821c-0.699,2.808 1.013,5.655 3.821,6.355c0.344,0.085 0.687,0.17 1.031,0.255c2.81,0.692 5.653,-1.028 6.345,-3.837c0.692,-2.81 -1.028,-5.653 -3.838,-6.345Z"
                  style="fill:#a04a01;"/>
            <path d="M519.819,904.008c-0.336,0.081 -0.673,0.162 -1.01,0.243c-2.815,0.671 -4.554,3.502 -3.882,6.317c0.672,2.815 3.503,4.554 6.317,3.882c0.344,-0.082 0.687,-0.164 1.03,-0.247c2.813,-0.677 4.548,-3.511 3.87,-6.325c-0.677,-2.813 -3.512,-4.547 -6.325,-3.87Zm-82.994,13.313c-0.345,0.028 -0.69,0.057 -1.036,0.085c-2.884,0.235 -5.035,2.767 -4.8,5.651c0.234,2.884 2.767,5.036 5.651,4.801c0.352,-0.029 0.703,-0.058 1.055,-0.087c2.884,-0.24 5.03,-2.776 4.79,-5.66c-0.24,-2.884 -2.776,-5.03 -5.66,-4.79Zm-84.086,0.761c-0.345,-0.022 -0.691,-0.045 -1.037,-0.068c-2.887,-0.193 -5.388,1.995 -5.581,4.882c-0.192,2.887 1.995,5.388 4.883,5.581c0.352,0.024 0.704,0.047 1.056,0.07c2.887,0.187 5.384,-2.005 5.572,-4.893c0.187,-2.888 -2.005,-5.384 -4.893,-5.572Zm-83.229,-11.778c-0.338,-0.075 -0.676,-0.15 -1.014,-0.225c-2.824,-0.63 -5.629,1.151 -6.259,3.975c-0.63,2.825 1.152,5.629 3.976,6.26c0.344,0.076 0.689,0.153 1.034,0.229c2.825,0.625 5.626,-1.162 6.251,-3.988c0.625,-2.826 -1.162,-5.627 -3.988,-6.251Z"
                  style="fill:#a04a01;"/></g>
        <g id="raampie"><circle cx="393.103" cy="361.702" r="114.278" style="fill:#b4cdd9;"/>
            <circle cx="393.103" cy="361.702" r="74.625" style="fill:#1f3541;"/>
            <path class="raamstreep"
                  d="M329.472,400.686l75.974,-112.592c4.931,0.823 9.699,2.129 14.256,3.87l-81.297,120.481c-3.348,-3.606 -6.344,-7.545 -8.933,-11.759Z"
                  style="fill:#2c8bbc;"/>
            <path class="raamstreep"
                  d="M346.819,420.226l83.238,-123.359c7.178,4.103 13.611,9.363 19.042,15.526l-80.779,119.714c-7.85,-2.767 -15.1,-6.811 -21.501,-11.881Z"
                  style="fill:#2c8bbc;"/>
            <path d="M483.814,364.541c-0.013,0.434 -0.03,0.867 -0.049,1.299c-0.173,3.854 2.816,7.124 6.67,7.297c3.855,0.174 7.125,-2.815 7.298,-6.67c0.022,-0.498 0.041,-0.996 0.056,-1.496c0.119,-3.857 -2.916,-7.084 -6.772,-7.203c-3.857,-0.118 -7.084,2.917 -7.203,6.773Zm-34.582,68.459c-0.34,0.268 -0.682,0.533 -1.026,0.797c-3.063,2.346 -3.645,6.737 -1.299,9.801c2.346,3.063 6.737,3.645 9.801,1.299c0.396,-0.303 0.79,-0.61 1.182,-0.919c3.03,-2.389 3.549,-6.789 1.16,-9.818c-2.389,-3.03 -6.789,-3.55 -9.818,-1.16Zm4.344,-138.945c0.323,0.289 0.643,0.58 0.962,0.873c2.838,2.613 7.265,2.43 9.878,-0.408c2.614,-2.839 2.431,-7.265 -0.408,-9.879c-0.367,-0.338 -0.737,-0.673 -1.109,-1.006c-2.875,-2.573 -7.299,-2.327 -9.871,0.548c-2.573,2.876 -2.328,7.299 0.548,9.872Zm-79.003,156.506c-0.424,-0.088 -0.847,-0.18 -1.269,-0.273c-3.766,-0.84 -7.505,1.537 -8.344,5.303c-0.839,3.766 1.538,7.505 5.304,8.344c0.487,0.108 0.975,0.214 1.465,0.315c3.778,0.785 7.482,-1.645 8.267,-5.423c0.784,-3.777 -1.645,-7.482 -5.423,-8.266Zm-9.884,-175.071c0.411,-0.135 0.822,-0.267 1.235,-0.397c3.682,-1.156 5.732,-5.083 4.576,-8.764c-1.155,-3.681 -5.082,-5.732 -8.764,-4.576c-0.477,0.15 -0.952,0.303 -1.426,0.459c-3.665,1.209 -5.658,5.165 -4.45,8.829c1.209,3.664 5.165,5.658 8.829,4.449Zm-51.556,129.132c-0.205,-0.381 -0.407,-0.764 -0.607,-1.148c-1.78,-3.423 -6.004,-4.757 -9.428,-2.977c-3.423,1.78 -4.757,6.005 -2.977,9.428c0.231,0.444 0.465,0.885 0.701,1.325c1.829,3.397 6.073,4.67 9.47,2.841c3.397,-1.829 4.671,-6.072 2.841,-9.469Zm-4.333,-76.568c0.16,-0.402 0.324,-0.802 0.49,-1.201c1.485,-3.561 -0.202,-7.658 -3.763,-9.142c-3.562,-1.485 -7.658,0.201 -9.143,3.763c-0.192,0.461 -0.381,0.923 -0.566,1.388c-1.433,3.582 0.312,7.654 3.894,9.087c3.583,1.433 7.655,-0.312 9.088,-3.895Z"
                  style="fill:#a04a01;"/></g>
        <g id="linkervleugel"><path d="M205.161,608.425c6.289,92.313 23.218,195.235 54.87,308.934c0.51,1.833 1.88,3.556 4.008,5.17c-16.31,4.058 -31.519,4.383 -36.609,-5.973c-22.158,-45.076 -74.711,-243.324 -45.965,-284.513c7.695,-11.026 15.715,-18.607 23.696,-23.618Z" style="fill:#1f3541;"/>
            <path d="M176.643,680.601c-0.025,-1.013 -0.488,-1.965 -1.269,-2.609c-0.781,-0.645 -1.804,-0.919 -2.803,-0.752c-14.668,2.458 -30.254,13.245 -43.88,28.888c-19.971,22.927 -35.825,56.218 -38.765,87.427c-7.501,79.606 27.369,262.542 38.819,289.495c13.479,31.73 46.877,75.456 73.33,88.017c9.951,4.725 19.054,5.166 26.185,0.233c6.739,-4.66 11.985,-14.583 13.959,-31.796c4.087,-35.616 -2.357,-130.151 -11.636,-223.961l-0.33,-1.174c-17.145,-35.557 -51.788,-160.1 -53.61,-233.768Z"
                  style="fill:#23749e;"/></g>
        <g id="rechtervleugel"><path d="M580.772,611.589c6.454,4.873 12.89,11.536 19.113,20.454c28.747,41.189 -23.807,239.437 -45.964,284.513c-4.719,9.601 -18.136,10.022 -33.058,6.8c2.801,-1.851 4.581,-3.849 5.179,-5.997c31.291,-112.403 48.223,-214.273 54.73,-305.77Z" style="fill:#1f3541;"/>
            <path d="M608.391,676.74c-0.943,-0.048 -1.866,0.287 -2.557,0.929c-0.692,0.643 -1.095,1.538 -1.117,2.482c-1.529,66.597 -30.128,175.194 -48.302,221.774l-0.221,0.917c-9.947,97.872 -17.18,199.443 -12.91,236.662c1.975,17.213 7.22,27.136 13.959,31.796c7.132,4.933 16.235,4.492 26.185,-0.233c26.454,-12.561 59.852,-56.287 73.331,-88.017c11.45,-26.953 46.32,-209.889 38.819,-289.495c-3.058,-32.451 -20.08,-67.149 -41.169,-90.115c-14.459,-15.746 -30.889,-25.926 -46.018,-26.7Z"
                  style="fill:#23749e;"/></g>
        <g id="middenvleuegel"><path d="M451.061,635.634c-20.953,-49.866 -94.548,-49.736 -115.807,0c-19.302,45.155 1.089,225.777 17.477,270.932c9.195,25.334 71.658,25.334 80.853,-0c16.388,-45.155 36.501,-225.659 17.477,-270.932Z" style="fill:#1f3541;"/>
            <path d="M394.604,1165.13c1.568,-0 3.594,-0.896 5.157,-3.713c2.885,-5.2 5.895,-20.378 8.629,-42.491c13.272,-107.342 23.57,-382.244 19.581,-447.697c-2.547,-41.786 -64.188,-41.786 -66.735,-0c-3.989,65.453 6.309,340.355 19.581,447.697c2.734,22.113 5.744,37.291 8.629,42.491c1.563,2.817 3.589,3.713 5.158,3.713Z"
                  style="fill:#23749e;"/></g></g></svg>
